<svg xmlns="http://www.w3.org/2000/svg" id="Layer_1" data-name="Layer 1" viewBox="0 0 800 600"><defs><style>.cls-1{fill:#babdbf}.cls-3{fill:#6e6e70}</style></defs><path d="M454.35 306.2a74 74 0 110-100.2h-98v100.1h98zm117.3-83.7v-.3c-15.8-80.3-86.6-141-171.6-141a174.936 174.936 0 00-175 175c0 96.6 78.3 174.9 175 174.9 96.6 0 175-78.3 175-174.9a186.9 186.9 0 00-3.4-33.7M277.25 454.1v64a.634.634 0 01-.5.6h-9.6c-.1 0-.1 0-.2-.1-.3 0-.5-.3-.6-.5l-11.7-33.7v33.7a.645.645 0 01-.6.6h-9.5a.645.645 0 01-.6-.6v-64a.56.56 0 01.5-.6.1.1 0 01.1-.1h9.5c.1 0 .1.1.2.1a1.024 1.024 0 01.6.5l11.7 33.7v-33.6a.669.669 0 01.6-.7h9.5a.669.669 0 01.6.7M307.35 466.4a2.348 2.348 0 00-2.4-2.3h-9.5v43.8h9.4a2.416 2.416 0 002.4-2.3v-39.2zm10.6-3.6V509a9.56 9.56 0 01-9.5 9.5h-23a.576.576 0 01-.6-.6v-64c0-.4.2-.7.6-.7h23a9.714 9.714 0 019.5 9.6M358.65 454.2v55.1a9.56 9.56 0 01-9.5 9.5h-14.1a9.5 9.5 0 01-9.5-9.5v-55.1c0-.4.2-.7.6-.7h9.5a.669.669 0 01.6.7v51.5a2.288 2.288 0 002.4 2.3h7.1a2.348 2.348 0 002.4-2.3v-51.5c0-.4.2-.7.6-.7h9.5a.763.763 0 01.4.7M388.75 473.4v-7a2.349 2.349 0 00-2.4-2.3h-7.1a2.489 2.489 0 00-2.4 2.3v12a2.433 2.433 0 002.4 2.4h10.7a9.475 9.475 0 019.4 9.5v18.9a9.54 9.54 0 01-9.4 9.5h-14.3a9.627 9.627 0 01-9.5-9.5v-10.4a.669.669 0 01.6-.7h9.4a.684.684 0 01.7.7l.1 6.9a2.326 2.326 0 002.3 2.3h7.1a2.416 2.416 0 002.4-2.3v-11.8a2.369 2.369 0 00-2.4-2.4h-10.6a9.56 9.56 0 01-9.5-9.5v-19a9.56 9.56 0 019.5-9.5h14.3a9.54 9.54 0 019.4 9.5v10.5a.669.669 0 01-.7.6h-9.5a.787.787 0 01-.5-.7M439.15 454.1v9.5a.576.576 0 01-.6.6h-10.6v53.9a.645.645 0 01-.6.6h-9.5a.576.576 0 01-.6-.6v-53.9h-10.7a.645.645 0 01-.6-.6v-9.5a.669.669 0 01.6-.7h31.9c.6 0 .7.3.7.7M468.35 466.4a2.326 2.326 0 00-2.3-2.3h-9.5v25h9.5a2.349 2.349 0 002.3-2.4zm10.7-3.6v27.4a9.416 9.416 0 01-4.3 7.9l4.1 19.8a.46.46 0 01-.5.6h-9.4a.871.871 0 01-.8-.6l-3.7-18.3h-7.9V518a.669.669 0 01-.7.6h-9.5a.645.645 0 01-.6-.6v-64a.669.669 0 01.6-.7h23.1a9.582 9.582 0 019.6 9.5M527.55 497.2l-4.9-20.9-4.9 20.9zm12.8 20.8a.576.576 0 01-.6.6h-9.5a.645.645 0 01-.6-.6l-.8-10.2h-12.6l-.8 10.2a.645.645 0 01-.6.6h-9.5a.576.576 0 01-.6-.6l1.1-16.1 11.1-48c.1-.2.3-.5.6-.5.1-.1 9.6-.1 9.7 0 .3 0 .5.3.6.5l11.1 48zM574.95 508.5v9.5a.645.645 0 01-.6.6h-27.2a.645.645 0 01-.6-.6v-64a.669.669 0 01.6-.7h9.5c.4 0 .6.3.6.7v53.8h17.2c.2 0 .5.4.5.7M224.95 453.3h10.7v65.1h-10.7zM487.05 453.6h10.7v65.1h-10.7z" class="cls-1"/><path fill="#fff" d="M553.55 222.5h-180.8v67.4h111a87.774 87.774 0 01-8.7 16.3 90.3 90.3 0 110-100h73.9c-20.9-62.3-79.6-107.3-149-107.3a157.3 157.3 0 000 314.6c69.4 0 128.1-45 149-107.3a151.466 151.466 0 004.6-16.3 155.322 155.322 0 000-67.4"/><path d="M399.25 397.1c-77.7 0-141-63.2-141-140.9s63.2-140.9 141-140.9a140.717 140.717 0 01124.2 74.6h-40.8a106.7 106.7 0 100 132.8h40.8a140.727 140.727 0 01-124.2 74.4" class="cls-3"/><path d="M408.65 242.8v6a.319.319 0 01-.3.3h-5.5a.446.446 0 01-.4-.3v-4a1.324 1.324 0 00-1.3-1.3h-4.2a1.324 1.324 0 00-1.3 1.3v22.8a1.324 1.324 0 001.3 1.3h4.2a1.324 1.324 0 001.3-1.3v-4.8h-3.1a.319.319 0 01-.3-.3V257a.319.319 0 01.3-.3h9a.319.319 0 01.3.3v12.7a5.549 5.549 0 01-5.5 5.5h-8.3a5.549 5.549 0 01-5.5-5.5v-26.9a5.549 5.549 0 015.5-5.5h8.3a5.549 5.549 0 015.5 5.5M426.25 244.8a1.324 1.324 0 00-1.3-1.3h-5.5V258h5.5a1.347 1.347 0 001.3-1.4zm6.2-2v15.9a5.555 5.555 0 01-2.5 4.6l2.4 11.5c.1.2-.1.3-.3.3h-5.5a.446.446 0 01-.4-.3l-2.2-10.6h-4.6v10.6c0 .2-.2.3-.4.3h-5.5a.319.319 0 01-.3-.3v-37.2a.446.446 0 01.3-.4h13.5a5.7 5.7 0 015.5 5.6M443.15 243.5v9.6h8.6a.446.446 0 01.4.3v5.5c0 .2-.2.3-.4.3h-8.6v9.6h10.6a.43.43 0 01.4.4v5.5c0 .2-.2.3-.4.3h-16.5a.446.446 0 01-.4-.3v-37.2a.43.43 0 01.4-.4h16.5a.43.43 0 01.4.4v5.5c0 .2-.2.3-.4.3h-10.6zM477.65 247.3l-6.3 18.1a.774.774 0 00-.1.3v9.1a.265.265 0 01-.3.3h-5.5a.319.319 0 01-.3-.3v-9.1a.494.494 0 00-.1-.3l-6.3-18.1c0-.2-.2-.5-.2-.7l-.6-9c-.1-.2.1-.4.3-.4h5.5a.43.43 0 01.4.4l.6 9a1.854 1.854 0 00.2.7l3.2 9.2c0 .2.2.2.2 0l3.2-9.2a.774.774 0 00.1-.3v-.3l.7-9a.446.446 0 01.3-.4h5.5c.2 0 .3.2.3.4l-.7 9v.3c0-.1 0 .1-.1.3M501.35 242.8v6.1a.319.319 0 01-.3.3h-5.5a.319.319 0 01-.3-.3v-4.1a1.415 1.415 0 00-1.4-1.3h-4.1a1.347 1.347 0 00-1.4 1.3v22.8a1.347 1.347 0 001.4 1.3h4.1a1.415 1.415 0 001.4-1.3v-4c0-.2.1-.4.3-.4h5.5c.2 0 .3.2.3.4v6.1a5.549 5.549 0 01-5.5 5.5h-8.2a5.484 5.484 0 01-5.5-5.5v-26.9a5.549 5.549 0 015.5-5.5h8.2a5.549 5.549 0 015.5 5.5M517.55 262.7l-2.8-12.1-2.8 12.1zm7.5 12.1a.265.265 0 01-.3.3h-5.5a.319.319 0 01-.3-.3l-.4-5.9h-7.3l-.4 5.9a.319.319 0 01-.3.3h-5.5a.319.319 0 01-.3-.3l.7-9.4 6.5-27.9c.1-.1.2-.3.3-.3a54.188 54.188 0 015.7 0 .319.319 0 01.3.3l6.5 27.9zM543.35 237.7v5.5a.265.265 0 01-.3.3h-6.2v31.3a.319.319 0 01-.3.3h-5.5a.319.319 0 01-.3-.3v-31.3h-6.2a.319.319 0 01-.3-.3v-5.5a.446.446 0 01.3-.4h18.6c.1 0 .2.2.2.4" class="cls-3"/></svg>